<svg width="172" height="159" viewBox="0 0 172 159" fill="none" xmlns="http://www.w3.org/2000/svg">
<path fill-rule="evenodd" clip-rule="evenodd" d="M86.7606 152.327C111.554 152.327 144.771 145.541 160.357 134.411C177.95 121.849 170.381 103.754 170.381 83.6385C170.381 45.7029 110.675 3.18079 86.7606 3.18079C62.8462 3.18079 3.13997 45.7029 3.13997 83.6385C3.13997 103.754 -7.41475 121.849 10.1782 134.411C25.7642 145.541 61.9669 152.327 86.7606 152.327Z" fill="#219EBC" fill-opacity="0.6"/>
<path d="M52.4164 116.49C64.7867 116.49 74.8148 106.461 74.8148 94.0911C74.8148 81.7208 64.7867 71.6927 52.4164 71.6927C40.0461 71.6927 30.018 81.7208 30.018 94.0911C30.018 106.461 40.0461 116.49 52.4164 116.49Z" fill="white"/>
<path d="M118.118 116.49C130.489 116.49 140.517 106.461 140.517 94.0911C140.517 81.7208 130.489 71.6927 118.118 71.6927C105.748 71.6927 95.72 81.7208 95.72 94.0911C95.72 106.461 105.748 116.49 118.118 116.49Z" fill="white"/>
<path fill-rule="evenodd" clip-rule="evenodd" d="M66.184 13.1762L61.0413 4.39307L71.0459 4.5633L76.6903 0.492764L84.8642 3.05514L93.4413 0L100.358 2.37124L110.99 5.06502L114.591 1.12291L112.059 10.8498L102.29 13.9258L84.3924 15.8521L66.184 13.1762Z" fill="#219EBC" fill-opacity="0.6"/>
<path d="M52.4164 107.53C59.8385 107.53 65.8554 101.513 65.8554 94.0911C65.8554 86.669 59.8385 80.6521 52.4164 80.6521C44.9942 80.6521 38.9773 86.669 38.9773 94.0911C38.9773 101.513 44.9942 107.53 52.4164 107.53Z" fill="#023047"/>
<path fill-rule="evenodd" clip-rule="evenodd" d="M35.9909 143.368H134.544L122.598 158.3C122.598 158.3 103.933 152.327 85.2674 152.327C66.602 152.327 47.9367 158.3 47.9367 158.3L35.9909 143.368Z" fill="#ED9111"/>
<path d="M118.118 107.53C125.541 107.53 131.557 101.513 131.557 94.0911C131.557 86.669 125.541 80.6521 118.118 80.6521C110.696 80.6521 104.679 86.669 104.679 94.0911C104.679 101.513 110.696 107.53 118.118 107.53Z" fill="#023047"/>
<path fill-rule="evenodd" clip-rule="evenodd" d="M27.2761 127.963C25.7136 123.276 28.1625 120.912 32.933 122.27C32.933 122.27 35.3801 124.753 51.3251 123.956C67.2701 123.158 84.1761 116.489 84.1761 116.489C84.1761 116.489 103.108 123.26 117.027 123.956C130.947 124.652 135.333 122.061 135.333 122.061C140.067 120.633 142.638 123.276 141.076 127.963L137.932 137.395L142.483 145.358C146.567 152.505 143.631 155.901 135.838 153.203C135.838 153.203 114.041 143.368 84.1761 143.368C54.3116 143.368 32.514 153.203 32.514 153.203C24.76 156.018 21.8017 152.477 25.8697 145.358L30.4199 137.395L27.2761 127.963Z" fill="#FFAF40" stroke="#ED9111" stroke-width="2.76907" stroke-linecap="round"/>
<path d="M41.9639 56.7605C33.717 56.7605 27.0316 63.4459 27.0316 71.6927" stroke="#219EBC" stroke-opacity="0.6" stroke-width="2.76907" stroke-linecap="round"/>
<path d="M128.571 56.7605C136.818 56.7605 143.503 63.4459 143.503 71.6927" stroke="#219EBC" stroke-opacity="0.6" stroke-width="2.76907" stroke-linecap="round"/>
</svg>
